<?xml version="1.0" encoding="utf-8"?>
<!-- Generator: Adobe Illustrator 18.0.0, SVG Export Plug-In . SVG Version: 6.00 Build 0)  -->
<!DOCTYPE svg PUBLIC "-//W3C//DTD SVG 1.1//EN" "http://www.w3.org/Graphics/SVG/1.1/DTD/svg11.dtd">
<svg version="1.1" id="Layer_1" xmlns="http://www.w3.org/2000/svg" xmlns:xlink="http://www.w3.org/1999/xlink" x="0px" y="0px"
	 width="2366.8px" height="2602.4px" viewBox="0 0 2366.8 2602.4" enable-background="new 0 0 2366.8 2602.4" xml:space="preserve">
<g>
	<circle fill="#C99E6B" cx="1138.6" cy="1138.6" r="1138.6"/>
	<g>
		
			<path fill="none" stroke="#FFFFFF" stroke-width="44.5238" stroke-linecap="round" stroke-linejoin="round" stroke-miterlimit="10" d="
			M2157.7,1138.6"/>
		
			<path fill="none" stroke="#FFFFFF" stroke-width="44.5238" stroke-linecap="round" stroke-linejoin="round" stroke-miterlimit="10" d="
			M1138.6,119.5"/>
		<path fill="#FCF8F0" d="M176.5,1497.8c-9.2,0-17.8-5.7-21-14.9c-38.7-110.4-58.3-226.2-58.3-344.3c0-124.3,21.7-246,64.5-361.5
			c41.3-111.7,101.2-214.8,178-306.5c7.9-9.4,21.9-10.7,31.4-2.8c9.4,7.9,10.7,21.9,2.8,31.4C300.4,586.9,243,685.6,203.5,792.5
			c-40.9,110.6-61.7,227-61.7,346.1c0,113,18.8,223.9,55.8,329.5c4.1,11.6-2,24.3-13.7,28.4C181.4,1497.4,179,1497.8,176.5,1497.8z"
			/>
		
			<path fill="none" stroke="#FFFFFF" stroke-width="44.5238" stroke-linecap="round" stroke-linejoin="round" stroke-miterlimit="10" d="
			M1138.6,2157.7"/>
		<path fill="#FCF8F0" d="M2049.7,1617.9c-3.4,0-6.8-0.8-10-2.4c-11-5.5-15.4-18.9-9.9-29.9c71.4-142,91.1-236.3,81.1-388
			c-2.1-32.4-10.7-72.8-23.4-111c-13.9-41.5-28-66.6-36.5-76.3c-8.2-9.2-7.3-23.3,1.9-31.4c9.2-8.2,23.3-7.3,31.4,1.9
			c15.1,17,31.7,50.4,45.5,91.7c14.1,42.2,23.2,85.6,25.6,122.2c5.6,85,1.8,151.5-12.2,215.9c-13,59.6-35.7,119.8-73.5,195.1
			C2065.7,1613.4,2057.8,1617.9,2049.7,1617.9z"/>
		
			<path fill="none" stroke="#FFFFFF" stroke-width="44.5238" stroke-linecap="round" stroke-linejoin="round" stroke-miterlimit="10" d="
			M1853.9,740.8"/>
		
			<path fill="none" stroke="#FFFFFF" stroke-width="44.5238" stroke-linecap="round" stroke-linejoin="round" stroke-miterlimit="10" d="
			M1138.6,119.5"/>
		
			<path fill="none" stroke="#FFFFFF" stroke-width="44.5238" stroke-linecap="round" stroke-linejoin="round" stroke-miterlimit="10" d="
			M119.5,1138.6"/>
		
			<path fill="none" stroke="#FFFFFF" stroke-width="44.5238" stroke-linecap="round" stroke-linejoin="round" stroke-miterlimit="10" d="
			M1138.6,2157.7"/>
		<path fill="#FCF8F0" d="M1138.6,2179.9c-109.3,0-217-16.9-320.1-50.1c-99.7-32.2-193.9-79.3-279.8-139.9
			c-24.2-17.1-47.9-35.4-70.6-54.5c-20.5-17.3-40.6-35.6-59.8-54.4c-8.8-8.6-8.9-22.7-0.3-31.5c8.6-8.8,22.7-8.9,31.5-0.3
			c18.3,18,37.6,35.6,57.2,52.1c21.7,18.3,44.4,35.8,67.6,52.2c168.6,119,367.1,181.9,574.2,181.9c50,0,101.7-8.7,153.8-25.9
			c48.8-16.1,95.8-38.9,139.5-67.8c84.1-55.4,146.8-128.2,167.8-194.6c3.7-11.7,16.2-18.2,27.9-14.5c11.7,3.7,18.2,16.2,14.5,27.9
			c-24.3,77-92.1,156.6-185.8,218.3C1357.6,2144.1,1244.7,2179.9,1138.6,2179.9z"/>
		<path fill="#FCF8F0" d="M134.5,1336.1c-10.6,0-20-7.6-21.9-18.5c-10.2-58.7-15.3-119-15.3-179.1c0-80.9,9.3-161.5,27.7-239.6
			c17.9-75.9,44.4-149.9,78.9-219.9c33.9-68.7,75.5-133.9,123.7-193.8c47.9-59.5,102.5-113.8,162.2-161.4c9.6-7.7,23.6-6.1,31.3,3.5
			c7.7,9.6,6.1,23.6-3.5,31.3c-57.2,45.6-109.4,97.6-155.3,154.5c-46.2,57.3-86,119.7-118.4,185.5c-33,67-58.4,137.8-75.5,210.4
			c-17.6,74.7-26.5,151.9-26.5,229.4c0,57.5,4.9,115.2,14.7,171.5c2.1,12.1-6,23.6-18.1,25.7C137,1336,135.8,1336.1,134.5,1336.1z"
			/>
		
			<path fill="none" stroke="#FFFFFF" stroke-width="44.5238" stroke-linecap="round" stroke-linejoin="round" stroke-miterlimit="10" d="
			M1138.6,119.5"/>
		
			<path fill="none" stroke="#FFFFFF" stroke-width="44.5238" stroke-linecap="round" stroke-linejoin="round" stroke-miterlimit="10" d="
			M1138.6,119.5"/>
		<path fill="#FCF8F0" d="M2056.1,718.4c-8.3,0-16.3-4.7-20.1-12.6c-47.2-98.4-111.9-185.7-187.1-252.4
			c-72.8-64.6-155.2-110-238.3-131.1c-11.9-3-19.1-15.1-16.1-27.1c3-11.9,15.1-19.1,27.1-16.1c90,22.9,178.8,71.6,256.9,140.9
			c39.3,34.9,76,75,108.9,119.1c33.7,45.2,63.5,94.7,88.8,147.3c5.3,11.1,0.7,24.4-10.4,29.7
			C2062.6,717.7,2059.4,718.4,2056.1,718.4z"/>
		<path fill="#FCF8F0" d="M1119.6,479.4c-2.2-0.2-4.5-0.7-6.7-1.6c-4.3-1.8-105.5-45-129-144.3c-22.9-96.8,39.1-206.3,41.7-210.9
			c3.1-5.3,8.2-9.2,14.2-10.6c6-1.4,12.3-0.3,17.4,3.1c4.4,2.9,108.9,73,131.8,169.8c23.5,99.2-47.6,183.2-50.7,186.8
			C1133.6,477.3,1126.6,480,1119.6,479.4z M1053,167.6c-15.2,33.8-39,99.4-25.7,155.6c13.5,56.9,62.2,91.3,87.5,105.6
			c16.1-24.2,44.4-77,31-133.6C1132.4,238.9,1081.8,191,1053,167.6z"/>
		<path fill="#FCF8F0" d="M2059.1,1018.1c-29.3,0-115.1-5.9-170-71.3c-63.9-76.2-57.7-201.8-57.4-207.2c0.3-6.1,3.2-11.9,7.9-15.8
			c4.7-4,10.8-5.8,17-5c5.3,0.6,130.1,16.4,194,92.6c65.5,78.1,39.7,185.1,38.6,189.6c-2.3,9.3-10.4,16.1-20,16.8
			C2068.4,1017.8,2064.8,1018.1,2059.1,1018.1z M2067.6,995.6L2067.6,995.6L2067.6,995.6z M1876.3,767.5
			c1.6,37.1,9.7,106.3,46.9,150.6c37.3,44.5,96.5,53.4,125.6,55c3.5-28.9,5-88.7-32.3-133.2l0,0c-27.1-32.3-70.3-51.5-101.8-61.9
			C1900.2,773.2,1886.9,769.8,1876.3,767.5z"/>
		<path fill="#FCF8F0" d="M1264.4,1462.2c-9.6,0-18.1-6.1-21.1-15.2c-1.5-4.4-35.4-109.1,24-192c57.9-80.9,181.2-106,186.4-107.1
			c6-1.2,12.3,0.2,17.3,3.7c5,3.6,8.3,9.1,9.1,15.2c0.7,5.3,16.5,130.1-41.5,210.9l0,0c-59.4,82.9-169.4,84.5-174.1,84.5
			C1264.5,1462.2,1264.4,1462.2,1264.4,1462.2z M1437.8,1198c-35.5,10.7-100.6,35.8-134.3,82.9c-33.8,47.2-27.8,106.8-22.1,135.3
			c28.8-3.8,87.2-17.2,121-64.4l0,0c24.6-34.3,32.4-80.9,34.7-114C1438.2,1222.5,1438.1,1208.9,1437.8,1198z M1420.5,1364.7
			L1420.5,1364.7L1420.5,1364.7z"/>
		<path fill="#FCF8F0" d="M1203.6,1712.2c-33.9,0-80.3-7.3-118.5-39.9c-65.8-56.2-78.5-164.4-79-169c-0.7-6.1,1.2-12.2,5.2-16.9
			c4-4.7,9.7-7.5,15.9-7.8c4.6-0.2,113.5-4.7,179.3,51.5l0,0c67.7,57.8,60.9,153.4,60.6,157.5c-0.8,9.6-7.6,17.6-17,19.9
			C1248.5,1707.9,1229.8,1712.2,1203.6,1712.2z M1245,1685.8L1245,1685.8L1245,1685.8z M1055,1523.6c7,31.4,23.6,84.6,59.1,114.8
			c35.5,30.3,83.3,30.7,108.5,28.3c-1.6-25.3-9.4-72.4-45-102.7l0,0c-26.9-23-65.6-32.9-93.3-37.2
			C1073.5,1525.1,1063.4,1524.1,1055,1523.6z"/>
		<path fill="#FCF8F0" d="M1171.5,2009.4c-84.5,0-165.2-48-169.1-50.4c-5.3-3.2-9-8.4-10.3-14.4s0-12.3,3.5-17.3
			c3-4.4,75.4-107.3,172.6-128.1c99.7-21.3,182.2,51.6,185.6,54.7c7.2,6.4,9.4,16.8,5.5,25.6c-1.9,4.3-47.3,104.5-147,125.8
			C1198.8,2008.1,1185.1,2009.4,1171.5,2009.4z M1048,1932.6c33.5,16,98.5,41.2,155,29.1c57.2-12.2,92.6-60.3,107.5-85.2
			c-23.9-16.6-76.1-46-132.9-33.8C1121,1854.8,1072,1904.4,1048,1932.6z"/>
		
			<path fill="none" stroke="#FFFFFF" stroke-width="44.5238" stroke-linecap="round" stroke-linejoin="round" stroke-miterlimit="10" d="
			M1236,985.3"/>
		<g>
			<path fill="#FCF8F0" d="M1387.2,830.1c-2.2,0-4.4-0.3-6.6-1c-11.7-3.6-18.3-16.1-14.7-27.8c3.4-10.9,5.9-22.1,7.4-33.3
				c14.1-100.4-43.7-210.7-70.9-256c-38.6,36-124.6,126.2-138.7,226.6c-0.7,4.6-1.2,9.4-1.5,14c-0.9,12.3-11.6,21.5-23.8,20.6
				c-12.3-0.9-21.5-11.6-20.6-23.8c0.4-5.7,1-11.4,1.8-17c8.7-62.2,40.7-127,95-192.4c39.9-48,77-78,78.5-79.3
				c4.8-3.9,11-5.6,17.1-4.7c6.1,0.9,11.6,4.2,15.1,9.2c1.2,1.6,28.5,40.7,53.6,97.9c34.2,77.8,47.1,148.8,38.4,211.1
				c-1.9,13.5-4.9,27.1-9,40.2C1405.5,824,1396.7,830.1,1387.2,830.1z"/>
			<path fill="#FCF8F0" d="M1212.5,1000.8c-44.3,0-131-10.6-224.4-79.5c-99.9-73.7-125.8-250-126.8-257.5c-1-6.7,1.2-13.5,5.9-18.5
				c4.7-4.9,11.4-7.4,18.2-6.8c1.8,0.2,44.4,4.3,101,19.9c76.6,21.2,139.6,52.1,187.3,92c37.6,31.5,64.7,80.8,78.5,142.8
				c10.2,45.7,9.6,82.4,9.6,83.9c-0.2,10.7-7.9,19.7-18.5,21.5C1241.8,999,1230.7,1000.8,1212.5,1000.8z M911.1,687.2
				c11.2,50.4,40.8,152,103.5,198.3c60.5,44.7,117.4,61.2,154.4,67.1c19.6,3.2,35.9,3.8,47.5,3.6c-2.9-39-15.6-124.9-71.3-171.6v0
				C1069.5,721.4,962.5,696.1,911.1,687.2z"/>
			<path fill="#FCF8F0" d="M1375.3,1028.5c-88.9,0-143.7-30.6-146.8-32.4c-9.3-5.3-13.5-16.5-10-26.6c2-5.8,50.3-143,160.4-182.8
				c58.5-21.2,128.3-28.7,207.5-22.3c58.6,4.7,100,15.4,101.7,15.9c6.6,1.7,12,6.4,14.7,12.6c2.7,6.2,2.5,13.4-0.8,19.4
				c-3.5,6.7-88.2,163.4-207.3,198.5C1450.4,1023.8,1410.2,1028.5,1375.3,1028.5z M1268.3,965.3c10.8,4.1,26.4,9.1,45.9,12.9
				c36.8,7.1,95.9,11,168.1-10.2c74.9-22.1,137.4-107.3,165.1-150.8c-51.3-9.2-160.6-22.1-253.3,11.4l-7.6-20.9l7.6,20.9
				C1325.7,853.3,1284.3,929.7,1268.3,965.3z"/>
		</g>
		<g>
			<path fill="#FCF8F0" d="M508.3,1576.3c-6.2,0-12.3-2.5-16.7-7.5c-3.8-4.2-7.4-8.7-10.9-13.2c-38.5-49.7-62.5-117.8-71.4-202.3
				c-6.5-62.1-2.1-109.6-1.9-111.6c0.6-6.1,3.7-11.7,8.5-15.5c4.9-3.8,11.1-5.3,17.1-4.4c2,0.3,49.1,8,107.5,29.9
				c79.6,29.9,139.5,70.2,177.9,119.9c8.4,10.8,15.9,22.4,22.5,34.5c5.9,10.8,1.9,24.3-8.9,30.2c-10.8,5.9-24.3,1.9-30.2-8.9
				c-5.5-10-11.7-19.6-18.6-28.6c-62-80.2-181.4-115.9-232.8-128c-1.2,52.8,3.4,177.3,65.4,257.5c2.9,3.7,5.9,7.4,9,10.9
				c8.2,9.2,7.3,23.3-1.9,31.4C518.9,1574.4,513.6,1576.3,508.3,1576.3z"/>
			<path fill="#FCF8F0" d="M491.6,1784.3c-114.2,0-234.8-87.4-240.4-91.5c-5.5-4-8.8-10.3-9.1-17.1c-0.2-6.8,2.6-13.3,7.8-17.8
				c1.4-1.2,34-28.8,84.8-58.4c68.6-40,134.8-63.5,196.6-69.8c116.5-11.8,219.5,90.8,223.8,95.2c7.5,7.6,8.6,19.5,2.5,28.3
				c-2.9,4.2-71.9,102.1-233.6,128.6C513.4,1783.5,502.5,1784.3,491.6,1784.3z M302.7,1673.5c43.9,27.2,137.3,76.9,214.2,64.3
				c74.2-12.1,125.7-41.3,155.9-63.7c15.9-11.8,27.8-23,35.7-31.5c-29.9-25.2-100.3-76-172.6-68.7l-2.3-22.1l2.3,22.1
				C437.8,1583.9,345,1642.9,302.7,1673.5z"/>
			<path fill="#FCF8F0" d="M739.4,1662.8c-8.2,0-16-4.6-19.9-12.3c-2.8-5.5-67.2-135.9-18.9-242.5l20.3,9.2l-20.3-9.2
				c25.7-56.6,69-111.9,128.9-164.1c44.2-38.7,80.8-60.8,82.4-61.7c5.8-3.5,13-4.2,19.3-1.8c6.4,2.4,11.3,7.6,13.4,14.1
				c2.3,7.2,55.4,177.3-2.7,287c-76.6,144.9-191.5,179.1-196.4,180.5C743.5,1662.5,741.4,1662.8,739.4,1662.8z M909.8,1237.1
				c-42.4,30.3-128,99.5-168.7,189.3c-30,66.2-4.2,149.1,10.1,185.5c10.5-4.9,24.9-12.5,41.2-23.8c30.8-21.4,74.9-61,110-127.4
				C939.1,1391.6,921.6,1287.3,909.8,1237.1z"/>
		</g>
		<g>
			<path fill="#FCF8F0" d="M1758.4,1717.5c-2.8,0-5.6-0.5-8.3-1.6c-11.4-4.6-16.9-17.6-12.3-29c4.4-10.8,8.1-22,11.1-33.2
				c24.7-91.5,4.3-194-9.5-245.4c-37.9,38.1-107.7,117.8-132.5,209.6c-1.3,4.6-2.4,9.4-3.4,14.1c-2.6,12-14.5,19.6-26.5,17
				c-12-2.6-19.6-14.5-17-26.5c1.2-5.4,2.5-10.9,3.9-16.2c16.1-59.7,50-121,100.6-182c37.4-45.1,70-72.7,71.4-73.9
				c5.6-4.7,13-6.4,20.1-4.5c7,1.9,12.7,7,15.2,13.9c0.6,1.7,15,41.4,24.9,98.7c13.3,77.4,11.9,147-4.2,206.8
				c-3.5,12.9-7.8,25.8-12.8,38.2C1775.6,1712.2,1767.3,1717.5,1758.4,1717.5z"/>
			<path fill="#FCF8F0" d="M1609.5,1876.8c-31,0-105.2-9.7-173.1-92.5c-27.5-33.4-45.1-87.6-52.4-161c-5.3-53-3.1-96.4-3-98.2
				c0.3-6.4,3.4-12.4,8.5-16.4c5.1-4,11.6-5.6,17.9-4.4c5.4,1,132.6,26.3,204.5,127.3l0,0c23.9,33.6,36.4,82.2,37,144.3
				c0.4,44.9-5.6,80.2-5.9,81.7c-1.6,9.4-9.1,16.7-18.5,18.2C1623.5,1876,1618.1,1876.8,1609.5,1876.8z M1620.9,1853.9
				L1620.9,1853.9L1620.9,1853.9z M1424.9,1555.1c0.1,16.7,0.9,39.6,3.4,64.4c6.4,63.3,21.1,110.5,42.5,136.6
				c37.6,45.7,76.4,63.8,102.3,71c11.1,3.1,20.8,4.4,28.3,4.9c1.5-13.6,3.1-33.8,2.8-56.3c-0.6-51.8-10.5-92.6-28.7-118.2l0,0
				C1532,1596.3,1462.4,1567,1424.9,1555.1z"/>
			<path fill="#FCF8F0" d="M1732.2,1912.1c-79.9,0-124-39.7-126.4-41.9c-6.9-6.4-9.1-16.5-5.3-25.2c0.6-1.4,14.9-34.3,39.7-71.4
				c34.5-51.5,71.4-85,109.8-99.5c115.2-43.7,234.9,6.9,240,9c5.9,2.5,10.3,7.4,12.3,13.5c2,6.1,1.3,12.7-1.9,18.2
				c-0.9,1.6-22.8,38.9-56.2,80.1c-46.2,57-90.6,92.3-131.8,104.7C1782.6,1908.6,1755.8,1912.1,1732.2,1912.1z M1649.2,1846.5
				c7,4.1,16.6,8.8,28.8,12.8c36.6,11.8,77.5,11,121.6-2.3c32-9.6,69.9-40.6,109.7-89.6c15.7-19.3,28.8-38,38.1-51.9
				c-37.7-11.1-111.9-26.1-181.5,0.3l-7.9-20.8l7.9,20.8c-29,11-59.5,39.4-88.2,82.1C1665.1,1816.5,1655.4,1834.3,1649.2,1846.5z"/>
		</g>
		<path fill="#FCF8F0" d="M1471.8,395.3c-7.5,0-15.2-0.5-23-1.7c-99.2-14.5-176.6-123.7-179.9-128.3c-6.8-9.7-4.8-22.9,4.4-30.2
			c4.4-3.5,109.9-85.9,209.1-71.4c101.7,14.9,151.8,123.2,153.9,127.8c3.6,7.9,2.2,17.2-3.5,23.8
			C1629.9,318.9,1562.2,395.3,1471.8,395.3z M1319.1,257.2c7.9,9.5,19,21.7,32.3,34.3c24.8,23.2,62.9,52.1,103.8,58.1
			c59.6,8.7,111.9-32.6,133.5-52.8c-5.3-9.1-13.6-21.9-24.8-35c-26.5-31.1-56.1-49.3-88-53.9c-41.2-6-86.3,11-116.9,26.3
			C1343,242.1,1329.2,250.5,1319.1,257.2z"/>
		<path fill="#FCF8F0" d="M1721.2,677.3c-115.4,0-226.6-78-231.7-81.6c-5-3.6-8.3-9-9.2-15.1c-0.8-6.1,0.9-12.3,4.8-17
			c4.3-5.3,106.8-130.1,232.7-147.3c53.5-7.3,110.3,5.5,164.4,37c40.2,23.5,65,49.1,66,50.2c6.7,7,8.1,17.4,3.5,25.9
			c-0.7,1.3-17.7,32.7-50.1,66.1c-43.6,44.9-94.9,72.5-148.4,79.8C1742.6,676.6,1731.9,677.3,1721.2,677.3z M1536.5,572.8
			c39.9,23.7,129.3,69.3,210.7,58.2c82.4-11.3,136.1-78.4,156.3-108.3c-9.9-8.5-25.4-20.4-44.8-31.7c-45.7-26.4-91-36.7-134.8-30.7
			l-3-22.1l3,22.1C1642.2,471.4,1568.5,539.3,1536.5,572.8z"/>
		<path fill="#FCF8F0" d="M1752.7,1303.3c-106.3,0-208.4-62.5-213.3-65.6c-5.2-3.2-8.9-8.5-10.1-14.5c-1.2-6,0.1-12.3,3.7-17.3
			c3.8-5.4,95.6-132.5,216.7-156.8l0,0c51.5-10.3,107.4-1.3,161.7,26c40.4,20.3,65.9,43.7,67,44.7c7.1,6.5,9.2,16.9,5.1,25.6
			c-0.6,1.3-15.2,32.7-44.6,67.1c-39.6,46.2-87.7,76-139.1,86.3C1784.2,1301.9,1768.4,1303.3,1752.7,1303.3z M1584.9,1212
			c13.5,6.9,32.3,15.8,54.3,23.9c39.8,14.7,98.4,30,151.8,19.2c78.3-15.7,126-83,143.9-113.3c-10.1-7.6-25.6-18-44.7-27.5
			c-45.6-22.7-89.9-29.9-131.8-21.5v0c-53.4,10.7-101.6,47.4-132.7,76.3C1608.6,1185,1594.7,1200.4,1584.9,1212z M1754,1070.9
			L1754,1070.9L1754,1070.9z"/>
		<path fill="#FCF8F0" d="M800.6,1136.3c-9.4,0-19-0.7-28.8-2.4c-98.1-16.2-175.2-115.6-178.4-119.9c-3.7-4.9-5.3-11.1-4.3-17.2
			c1-6.1,4.5-11.4,9.6-14.9c4.4-3,109.4-72.3,207.5-56c100.6,16.6,150.7,114.6,152.8,118.8c4.3,8.6,2.6,19-4.3,25.8
			C951.6,1073.5,887.1,1136.3,800.6,1136.3z M645.3,1006.2c25.3,27.1,76.6,74.4,133.7,83.8c57.7,9.5,108.2-22.2,131.2-39.9
			c-16.1-24.2-54-70.6-111.3-80.1l0,0c-41.6-6.9-86.9,6.7-117.6,19.3C667.2,995,654.9,1001,645.3,1006.2z"/>
		<path fill="#FCF8F0" d="M677.2,442.8c-107.9,0-186.3-82.4-189.8-86.2c-7.7-8.2-8-20.9-0.8-29.5c3.5-4.2,88.2-104,206.8-118.8
			c118.8-14.8,222.2,61.8,226.5,65c4.9,3.7,8,9.2,8.7,15.2c0.7,6-1.1,12.1-5,16.8c-4.1,4.9-101.7,121-220.4,135.8
			C694.4,442.3,685.7,442.8,677.2,442.8z M535.3,340.3c9.1,7.6,21.9,17.4,37.6,26.7c42.1,25,84.1,35.1,124.9,30
			c74.8-9.3,143.5-70.2,174.4-101.6c-33.1-19.4-101.1-52-173.3-43l-2.8-22.1l2.8,22.1C623.5,261.9,562.1,313.9,535.3,340.3z"/>
		<path fill="#FCF8F0" d="M262.5,1088c-19.9,0-40.4-1.9-61.3-5.9c-49.8-9.3-84.5-26.5-86-27.3c-10.1-5-14.8-16.8-11-27.4
			c0.5-1.5,13.6-37.7,41.6-81.8C183.2,886.8,230,841.7,281,815.2l0,0c51.1-26.5,114.4-38.5,182.9-34.5c51.3,3,87.6,13.7,89.2,14.1
			c5.8,1.7,10.7,5.8,13.5,11.2c2.8,5.4,3.2,11.7,1.2,17.5c-0.6,1.8-15.5,43.6-45.2,93.4c-40.6,67.9-87.5,116-139.5,143
			C347.2,1078.5,306.3,1088,262.5,1088z M154.4,1023c13.4,5,33.1,11.3,56.3,15.6c57.3,10.5,108.4,4.4,151.8-18.1
			c81.8-42.5,133.7-142.9,153.7-188.5c-14.1-2.7-33.5-5.6-56-6.9c-41.9-2.3-103.4,1-158.7,29.7l0,0
			C219.2,897.5,172.1,984.3,154.4,1023z M291.3,835L291.3,835L291.3,835z"/>
		<path fill="#FCF8F0" d="M416.9,735.7c-100,0-178.8-61.2-182.7-64.2c-9.2-7.2-11.2-20.3-4.6-30c3.1-4.6,78.5-113.6,200.6-142.2h0
			c121.9-28.6,240.1,34.8,245.1,37.5c5.5,3,9.5,8.2,11,14.3c1.5,6.1,0.3,12.5-3.2,17.7c-3.6,5.4-90.4,132.1-212.6,160.8
			C452.2,733.9,434.2,735.7,416.9,735.7z M280.2,649c10.7,6.5,25.5,14.7,43.2,22.1c48.2,20.1,94.3,25.2,137,15.2
			c54.2-12.7,101.5-50.2,131.6-79.5c15.9-15.5,28.9-30.3,38.2-41.7c-37.6-15.5-114.3-40-189.8-22.3h0
			C362.9,560.8,305.3,619.3,280.2,649z M435.3,520.9L435.3,520.9L435.3,520.9z"/>
		<path fill="#FCF8F0" d="M1041.6,1222.9c-9.3,0-18-5.9-21.1-15.3c-34.1-103.2-90.6-132.5-91.1-132.8c-11.1-5.3-15.8-18.6-10.5-29.7
			c5.3-11.1,18.6-15.8,29.7-10.5c3,1.4,73.6,36.4,114.2,159c3.9,11.7-2.5,24.3-14.1,28.1C1046.3,1222.6,1043.9,1222.9,1041.6,1222.9
			z"/>
		<path fill="#FCF8F0" d="M796.3,866.3c-4.7,0-9.4-1.5-13.5-4.6c-26-19.8-45.1-43.7-58.5-73c-12.2-26.7-19.9-58.9-23.6-98.4
			c-1.1-12.2,7.8-23.1,20.1-24.2c12.3-1.2,23.1,7.8,24.2,20.1c3.2,34.5,9.7,62,19.8,84.1c10.3,22.5,25,40.9,45,56.1
			c9.8,7.5,11.7,21.4,4.2,31.2C809.6,863.3,803,866.3,796.3,866.3z"/>
		<path fill="#FCF8F0" d="M1001.3,580.6c-8.4,0-16.4-4.7-20.2-12.8c-13.6-28.9-55.1-69-117.1-93.4c-11.4-4.5-17.1-17.4-12.6-28.9
			c4.5-11.4,17.4-17.1,28.9-12.6c64.5,25.4,119.9,70.8,141.1,115.9c5.2,11.1,0.5,24.4-10.7,29.6
			C1007.7,579.9,1004.5,580.6,1001.3,580.6z"/>
		<path fill="#FCF8F0" d="M1104,575.2c-2.5-0.2-4.9-0.8-7.3-1.9c-11.2-5.1-16.1-18.3-11-29.5c17.4-38.3,13.7-84.2,13.7-84.6
			c-1-12.2,8-23,20.2-24.1c12.2-1.1,23,7.9,24.1,20.2c0.2,2.3,4.9,57.8-17.5,107C1122.2,571,1113.1,576,1104,575.2z"/>
		<path fill="#FCF8F0" d="M1069.2,1372.7c-7,0-13.8-3.3-18.2-9.3c-7.1-10-4.8-23.9,5.2-31c61.7-43.9,164.6-148.5,161-355.1
			c-0.2-12.3,9.6-22.4,21.9-22.6c12.3-0.2,22.4,9.6,22.6,21.9c1.7,98.3-18.9,185.8-61.1,260c-37.7,66.2-85.3,108.4-118.6,132.1
			C1078.1,1371.3,1073.6,1372.7,1069.2,1372.7z"/>
		<path fill="#FCF8F0" d="M649.6,1237.3c-6.8,0-13.6-3.1-17.9-9.1c-30.9-41.9-94.1-74.4-178-91.6c-12-2.5-19.8-14.2-17.3-26.3
			c2.5-12,14.2-19.8,26.3-17.3c121.4,24.8,178.4,72.9,204.9,108.8c7.3,9.9,5.2,23.8-4.7,31.1
			C658.8,1235.9,654.2,1237.3,649.6,1237.3z"/>
		<path fill="#FCF8F0" d="M318.9,1483.8c-7.6,0-15.1-3.9-19.2-11c-14.3-24.4-24.9-68.8-30.1-102.3c-4.3-27.8-9.9-80.1,0.5-118
			c3.3-11.9,15.5-18.8,27.4-15.6c11.9,3.3,18.8,15.5,15.6,27.4c-13.3,48.3,6.5,154.3,25.1,186c6.2,10.6,2.7,24.2-7.9,30.5
			C326.6,1482.8,322.8,1483.8,318.9,1483.8z"/>
		<path fill="#FCF8F0" d="M931.6,1875.9c-3,0-6.1-0.6-9.1-2c-108.9-48.8-147.5-121.6-178.5-180.1c-7.9-14.9-15.3-28.9-23.3-41.2
			c-6.6-10.3-3.7-24.1,6.7-30.8c10.3-6.6,24.1-3.7,30.8,6.7c8.9,13.9,16.8,28.7,25.1,44.5c29.3,55.2,62.5,117.8,157.4,160.4
			c11.2,5,16.2,18.2,11.2,29.4C948.2,1871,940.1,1875.9,931.6,1875.9z"/>
		<path fill="#FCF8F0" d="M930.8,2027.6c-1.2,0-2.4-0.1-3.6-0.3c-75.5-12.3-135.7-43.7-172.9-67.9c-43.9-28.5-78.4-61.9-90.1-87.3
			c-5.2-11.2-0.3-24.4,10.9-29.5c11.2-5.2,24.4-0.3,29.5,10.9c4.7,10.2,26.2,37.6,73.9,68.6c33.6,21.8,88,50.2,155.8,61.3
			c12.1,2,20.4,13.4,18.4,25.5C951,2019.8,941.6,2027.6,930.8,2027.6z"/>
		<path fill="#FCF8F0" d="M2049.7,1617.9c-2.6,0-5.3-0.5-7.9-1.5c-11.5-4.4-17.2-17.2-12.9-28.7c30.4-79.7,46.4-151.1,47.5-212.3
			c0.9-48.5-7.5-90.8-25-125.6c-18.1-36-42.9-57.6-60.6-69.4c-18.1-12-32.2-16.4-32.4-16.4c-11.8-3.3-18.7-15.6-15.4-27.5
			c3.3-11.8,15.6-18.7,27.5-15.4c3.1,0.9,77.5,22.7,120.6,108.6c20.8,41.3,30.8,90.6,29.7,146.4c-1.3,66.4-18.2,142.8-50.4,227.3
			C2067.1,1612.4,2058.7,1617.9,2049.7,1617.9z"/>
		<path fill="#FCF8F0" d="M1942.7,1563.4c-1.2,0-2.3-0.1-3.5-0.3c-12.1-1.9-20.4-13.3-18.5-25.5c7.9-49.6-0.7-92.4-9.3-119.6
			c-9.4-30-21-48.2-21.1-48.4c-6.7-10.3-3.7-24.1,6.6-30.8c10.3-6.7,24.1-3.7,30.8,6.6c2.3,3.5,54.9,86.5,37,199.2
			C1962.9,1555.5,1953.5,1563.4,1942.7,1563.4z"/>
		<path fill="#FCF8F0" d="M1689.9,1011.9c-8.2,0-16-4.5-19.9-12.3c-5.5-11-1-24.4,10-29.9c57.9-29,70.8-76.1,73.6-95.1
			c1.8-12.2,13.2-20.5,25.3-18.7c12.2,1.8,20.5,13.2,18.7,25.3c-2.3,15.6-8.6,39.5-25,64.7c-17.4,26.8-41.9,48.2-72.8,63.6
			C1696.6,1011.2,1693.2,1011.9,1689.9,1011.9z"/>
		<path fill="#FCF8F0" d="M1424.3,1983.1c-5.2,0-10.5-1.8-14.7-5.6c-62.1-54.7-109.5-117.3-141-186.1
			c-25.2-55.2-40.3-114.4-44.6-175.9c-7.5-104.8,18.3-179.8,19.4-182.9c4.1-11.6,16.8-17.7,28.4-13.6c11.6,4.1,17.7,16.8,13.6,28.4
			c-0.4,1.2-24.1,71.2-16.9,166.9c4.2,55.9,18,109.7,41.1,159.8c28.8,62.7,72.4,119.9,129.4,170.1c9.2,8.1,10.1,22.2,2,31.4
			C1436.6,1980.5,1430.4,1983.1,1424.3,1983.1z"/>
	</g>
	<path fill="#FCF8F0" d="M1005.9,1748.7c-3.2,0-6.4-0.7-9.4-2.1c-78.3-36.5-81.7-114.1-81.8-117.4l44.5-1.5l0-0.2
		c0.1,2.2,3.2,53.9,56.2,78.7c11.1,5.2,16,18.4,10.8,29.6C1022.3,1744,1014.3,1748.7,1005.9,1748.7z"/>
	<path fill="#FCF8F0" d="M1289.5,152.9c-1.1,0-2.2-0.1-3.4-0.3c-36.5-5.6-73.8-9.2-110.9-10.7c-12.3-0.5-21.8-10.9-21.3-23.1
		c0.5-12.3,10.8-21.9,23.1-21.3c38.7,1.6,77.7,5.3,115.9,11.1c12.2,1.9,20.5,13.2,18.6,25.4C1309.8,145,1300.3,152.9,1289.5,152.9z"
		/>
	<circle fill="#FCF8F0" cx="769.2" cy="509.1" r="22.7"/>
	<circle fill="#FCF8F0" cx="1556.2" cy="1417" r="22.7"/>
	<circle fill="#FCF8F0" cx="572.9" cy="1862.2" r="22.7"/>
	<circle fill="#FCF8F0" cx="1672.1" cy="1988.8" r="22.7"/>
	<circle fill="#FCF8F0" cx="1426.7" cy="473.1" r="22.7"/>
	<circle fill="#FCF8F0" cx="1346.9" cy="1100.9" r="22.7"/>
	<circle fill="#FCF8F0" cx="896.8" cy="154.3" r="22.7"/>
	<circle fill="#FCF8F0" cx="619.1" cy="874" r="22.7"/>
	<circle fill="#FCF8F0" cx="244.6" cy="1156.5" r="22.7"/>
	<circle fill="#FCF8F0" cx="1090.8" cy="1072.2" r="22.7"/>
</g>
<g>
	<path fill="#C99E6B" d="M57.9,2426.7c8.4-1.5,21.5-2.7,34.9-2.7c19.1,0,31.4,2.9,40.7,9.4c7.7,5,12.3,12.7,12.3,22.8
		c0,12.5-9.4,23.4-25.1,28.4v0.4c14.1,3.1,30.5,13.2,30.5,32.4c0,11.1-5.1,19.6-12.5,25.9c-10.3,8.3-27,12.1-51.2,12.1
		c-13.2,0-23.3-0.8-29.7-1.5V2426.7z M77.1,2479.7h17.4c20.2,0,32.1-9.2,32.1-21.7c0-15.2-13.2-21.1-32.5-21.1
		c-8.8,0-13.8,0.6-16.9,1.2V2479.7z M77.1,2541.7c3.7,0.6,9.2,0.8,16,0.8c19.8,0,38-6.3,38-25.2c0-17.7-17.4-25-38.2-25H77.1V2541.7
		z"/>
	<path fill="#C99E6B" d="M303.6,2488.4c0,44.5-31,68.2-68.8,68.2c-39.1,0-66.6-26.5-66.6-65.7c0-41.1,29.2-68,68.8-68
		C277.5,2422.9,303.6,2450,303.6,2488.4z M188.7,2490.5c0,27.6,17.1,52.4,47.2,52.4c30.3,0,47.5-24.4,47.5-53.8
		c0-25.7-15.4-52.6-47.2-52.6C204.5,2436.5,188.7,2462.1,188.7,2490.5z"/>
	<path fill="#C99E6B" d="M328.5,2426.7c11.6-1.5,25.5-2.7,40.7-2.7c27.5,0,47,5.6,60,16.1c13.2,10.6,20.9,25.5,20.9,46.5
		c0,21.1-7.5,38.4-21.3,50.3c-13.8,12.1-36.7,18.6-65.5,18.6c-13.6,0-25.1-0.6-34.7-1.5V2426.7z M347.6,2541.2
		c4.8,0.8,11.9,1,19.3,1c40.9,0,63.1-20,63.1-54.9c0.2-30.5-19.6-49.9-60-49.9c-9.9,0-17.4,0.8-22.4,1.7V2541.2z"/>
	<path fill="#C99E6B" d="M501.6,2554.4v-54.9l-46.8-74.5h21.8l20.9,35.7c5.7,9.8,10.1,17.7,14.7,26.7h0.4
		c4.2-8.4,9.2-16.9,14.9-26.7l21.3-35.7h21.8l-49.7,74.3v55.1H501.6z"/>
	<path fill="#C99E6B" d="M758.9,2497.6c-1.1-18-2.4-39.7-2.2-55.9h-0.7c-5.1,15.2-11.2,31.3-18.7,49.2l-26.2,62.8h-14.5l-24-61.6
		c-7-18.2-13-34.9-17.1-50.3h-0.4c-0.4,16.1-1.5,37.8-2.9,57.2l-4,55.5h-18.2l10.3-129.4h24.4l25.3,62.6
		c6.2,15.9,11.2,30.1,14.9,43.6h0.7c3.7-13.1,9-27.3,15.6-43.6l26.4-62.6h24.4l9.2,129.4h-18.7L758.9,2497.6z"/>
	<path fill="#C99E6B" d="M832.6,2513.7l-15.4,40.7h-19.8l50.3-129.4h23.1l50.5,129.4h-20.4l-15.8-40.7H832.6z M881.1,2500.7
		l-14.5-37.2c-3.3-8.4-5.5-16.1-7.7-23.6h-0.4c-2.2,7.7-4.6,15.6-7.5,23.4l-14.5,37.4H881.1z"/>
	<path fill="#C99E6B" d="M940.4,2534.1c8.6,4.6,21.1,8.4,34.3,8.4c19.6,0,31-9,31-22.1c0-12.1-7.9-19-27.9-25.7
		c-24.2-7.5-39.1-18.4-39.1-36.7c0-20.2,19.1-35.1,47.9-35.1c15.2,0,26.2,3.1,32.7,6.3l-5.3,13.6c-4.8-2.3-14.7-6.1-28.1-6.1
		c-20.2,0-27.9,10.6-27.9,19.4c0,12.1,9,18,29.4,25c25.1,8.4,37.8,19,37.8,38c0,20-16.9,37.2-51.9,37.2c-14.3,0-29.9-3.6-37.8-8.3
		L940.4,2534.1z"/>
	<path fill="#C99E6B" d="M1048.8,2534.1c8.6,4.6,21.1,8.4,34.3,8.4c19.6,0,31-9,31-22.1c0-12.1-7.9-19-27.9-25.7
		c-24.2-7.5-39.1-18.4-39.1-36.7c0-20.2,19.1-35.1,47.9-35.1c15.2,0,26.2,3.1,32.7,6.3l-5.3,13.6c-4.8-2.3-14.7-6.1-28.1-6.1
		c-20.2,0-27.9,10.6-27.9,19.4c0,12.1,9,18,29.4,25c25.1,8.4,37.8,19,37.8,38c0,20-16.9,37.2-51.9,37.2c-14.3,0-29.9-3.6-37.8-8.3
		L1048.8,2534.1z"/>
	<path fill="#C99E6B" d="M1183.7,2513.7l-15.4,40.7h-19.8l50.3-129.4h23.1l50.5,129.4h-20.4l-15.8-40.7H1183.7z M1232.3,2500.7
		l-14.5-37.2c-3.3-8.4-5.5-16.1-7.7-23.6h-0.4c-2.2,7.7-4.6,15.6-7.5,23.4l-14.5,37.4H1232.3z"/>
	<path fill="#C99E6B" d="M1403.7,2548.7c-8.6,2.7-25.5,7.1-45.5,7.1c-22.4,0-40.9-5-55.4-17.1c-12.7-10.8-20.7-28-20.7-48.2
		c0.2-38.6,30.5-66.8,80.2-66.8c17.1,0,30.5,3.3,36.9,6l-4.6,13.6c-7.9-3.1-17.8-5.6-32.7-5.6c-36,0-59.6,19.6-59.6,52
		c0,32.8,22.6,52.2,57.1,52.2c12.5,0,21.1-1.5,25.5-3.5v-38.6h-30.1v-13.4h48.8V2548.7z"/>
	<path fill="#C99E6B" d="M1509.6,2493.7H1452v46.7h64.2v14h-83.3V2425h80v14H1452v40.9h57.6V2493.7z"/>
	<path fill="#C99E6B" d="M1587.6,2426.5c9.2-1.3,21.3-2.5,36.7-2.5c18.9,0,32.7,3.8,41.5,10.8c8.1,6.1,13,15.6,13,27.1
		c0,11.7-4,20.9-11.4,27.6c-10.1,9.4-26.6,14.2-45.3,14.2c-5.7,0-11-0.2-15.4-1.2v51.8h-19.1V2426.5z M1606.7,2488.9
		c4.2,1,9.4,1.3,15.8,1.3c23.1,0,37.1-9.8,37.1-27.6c0-17.1-13.8-25.3-34.9-25.3c-8.4,0-14.7,0.6-18,1.3V2488.9z"/>
	<path fill="#C99E6B" d="M1710,2513.7l-15.4,40.7h-19.8l50.3-129.4h23.1l50.5,129.4h-20.4l-15.8-40.7H1710z M1758.6,2500.7
		l-14.5-37.2c-3.3-8.4-5.5-16.1-7.7-23.6h-0.4c-2.2,7.7-4.6,15.6-7.5,23.4l-14.5,37.4H1758.6z"/>
	<path fill="#C99E6B" d="M1820.5,2425h19.1v115.4h63.3v14h-82.4V2425z"/>
	<path fill="#C99E6B" d="M2042.3,2488.4c0,44.5-31,68.2-68.8,68.2c-39.1,0-66.6-26.5-66.6-65.7c0-41.1,29.2-68,68.8-68
		C2016.1,2422.9,2042.3,2450,2042.3,2488.4z M1927.3,2490.5c0,27.6,17.1,52.4,47.2,52.4c30.3,0,47.5-24.4,47.5-53.8
		c0-25.7-15.4-52.6-47.2-52.6C1943.2,2436.5,1927.3,2462.1,1927.3,2490.5z"/>
	<path fill="#C99E6B" d="M2086.2,2425v76.6c0,29,14.7,41.3,34.5,41.3c22,0,36-12.7,36-41.3V2425h19.3v75.5c0,39.7-24,56.1-56,56.1
		c-30.3,0-53.2-15.2-53.2-55.3V2425H2086.2z"/>
	<path fill="#C99E6B" d="M2209.3,2426.7c9.7-1.7,23.5-2.7,36.7-2.7c20.4,0,33.6,3.3,42.9,10.6c7.5,5.8,11.6,14.6,11.6,24.6
		c0,17.1-12.3,28.4-27.9,33v0.6c11.4,3.5,18.2,12.7,21.8,26.1c4.8,18,8.4,30.5,11.4,35.5H2286c-2.4-3.6-5.7-14.8-9.9-30.9
		c-4.4-17.9-12.3-24.6-29.7-25.2h-18v56.1h-19.1V2426.7z M2228.4,2485.7h19.6c20.4,0,33.4-9.8,33.4-24.6c0-16.7-13.8-24-34.1-24.2
		c-9.2,0-15.8,0.8-18.9,1.5V2485.7z"/>
</g>
</svg>
